<svg version="1.1" id="Layer_1" xmlns="http://www.w3.org/2000/svg" xmlns:xlink="http://www.w3.org/1999/xlink" x="0px" y="0px"
	 width="100%" viewBox="0 0 256 256" enable-background="new 0 0 256 256" xml:space="preserve">
<path fill="#FFFBFB" opacity="1.000000" stroke="none" 
	d="
M1.000000,96.000000 
	C1.000000,64.000008 1.000000,32.500011 1.000000,1.000013 
	C86.333313,1.000008 171.666626,1.000008 256.999939,1.000004 
	C256.999969,86.333290 256.999969,171.666580 257.000000,256.999908 
	C171.666718,256.999939 86.333435,256.999939 1.000077,256.999969 
	C1.000000,203.500000 1.000000,150.000000 1.000000,96.000000 
M214.298035,23.123526 
	C208.201172,21.019623 202.211578,17.583284 195.985687,17.082094 
	C181.914459,15.949346 167.726761,16.253269 153.585800,16.010626 
	C151.988937,15.983224 150.387924,16.198200 148.778351,16.301458 
	C148.778351,91.733177 148.778351,166.742584 148.778351,242.044708 
	C161.556808,242.044708 173.874496,242.084595 186.191849,242.036957 
	C218.289551,241.912811 244.021729,216.342133 244.107986,184.306641 
	C244.205795,147.983795 244.162766,111.660400 244.109909,75.337357 
	C244.076889,52.637222 234.166534,35.423271 214.298035,23.123526 
M117.436844,16.000179 
	C101.772034,15.992144 86.106773,15.904142 70.442520,15.993214 
	C40.577446,16.163031 14.390186,41.221779 14.007263,71.009354 
	C13.514622,109.331978 13.518795,147.669861 13.979913,185.993088 
	C14.354321,217.109970 40.360832,241.988586 71.454918,242.024048 
	C87.453140,242.042282 103.451401,242.033035 119.449638,242.036163 
	C121.025108,242.036469 122.600578,242.036209 124.088593,242.036209 
	C124.088593,166.328064 124.088593,91.398643 124.088593,16.000391 
	C122.003410,16.000391 120.210831,16.000391 117.436844,16.000179 
z"/>
<path fill="#FD0305" opacity="1.000000" stroke="none" 
	d="
M214.617859,23.305592 
	C234.166534,35.423271 244.076889,52.637222 244.109909,75.337357 
	C244.162766,111.660400 244.205795,147.983795 244.107986,184.306641 
	C244.021729,216.342133 218.289551,241.912811 186.191849,242.036957 
	C173.874496,242.084595 161.556808,242.044708 148.778351,242.044708 
	C148.778351,166.742584 148.778351,91.733177 148.778351,16.301458 
	C150.387924,16.198200 151.988937,15.983224 153.585800,16.010626 
	C167.726761,16.253269 181.914459,15.949346 195.985687,17.082094 
	C202.211578,17.583284 208.201172,21.019623 214.617859,23.305592 
M190.795593,117.774078 
	C180.847870,119.013771 174.360550,124.609253 171.370789,133.980667 
	C168.562531,142.783066 171.737793,152.560043 178.930038,158.181732 
	C186.597916,164.175171 195.052322,164.919373 203.728455,160.778870 
	C213.082535,156.314819 218.042587,145.291794 215.634415,135.230942 
	C212.993073,124.195908 203.844925,117.487061 190.795593,117.774078 
z"/>
<path fill="#F90506" opacity="1.000000" stroke="none" 
	d="
M117.927544,16.000286 
	C120.210831,16.000391 122.003410,16.000391 124.088593,16.000391 
	C124.088593,91.398643 124.088593,166.328064 124.088593,242.036209 
	C122.600578,242.036209 121.025108,242.036469 119.449638,242.036163 
	C103.451401,242.033035 87.453140,242.042282 71.454918,242.024048 
	C40.360832,241.988586 14.354321,217.109970 13.979913,185.993088 
	C13.518795,147.669861 13.514622,109.331978 14.007263,71.009354 
	C14.390186,41.221779 40.577446,16.163031 70.442520,15.993214 
	C86.106773,15.904142 101.772034,15.992144 117.927544,16.000286 
M32.466930,166.492096 
	C32.663521,173.148331 32.501717,179.838257 33.123859,186.454468 
	C34.994202,206.344788 44.855927,218.638290 64.436127,221.828003 
	C77.583160,223.969727 91.276283,222.762100 104.725685,223.021744 
	C104.965897,223.026382 105.213692,222.638229 105.501892,222.396484 
	C105.501892,160.022644 105.501892,97.623528 105.501892,35.240479 
	C92.404953,35.240479 79.479248,34.045967 66.865067,35.519039 
	C47.703629,37.756691 37.488831,48.496349 33.761333,67.628578 
	C32.876396,72.170731 32.555431,76.885620 32.536587,81.523346 
	C32.422817,109.513382 32.472279,137.504089 32.466930,166.492096 
z"/>
<path fill="#FEFAF9" opacity="1.000000" stroke="none" 
	d="
M191.244522,117.723854 
	C203.844925,117.487061 212.993073,124.195908 215.634415,135.230942 
	C218.042587,145.291794 213.082535,156.314819 203.728455,160.778870 
	C195.052322,164.919373 186.597916,164.175171 178.930038,158.181732 
	C171.737793,152.560043 168.562531,142.783066 171.370789,133.980667 
	C174.360550,124.609253 180.847870,119.013771 191.244522,117.723854 
z"/>
<path fill="#FFFBFB" opacity="1.000000" stroke="none" 
	d="
M32.467033,165.993332 
	C32.472279,137.504089 32.422817,109.513382 32.536587,81.523346 
	C32.555431,76.885620 32.876396,72.170731 33.761333,67.628578 
	C37.488831,48.496349 47.703629,37.756691 66.865067,35.519039 
	C79.479248,34.045967 92.404953,35.240479 105.501892,35.240479 
	C105.501892,97.623528 105.501892,160.022644 105.501892,222.396484 
	C105.213692,222.638229 104.965897,223.026382 104.725685,223.021744 
	C91.276283,222.762100 77.583160,223.969727 64.436127,221.828003 
	C44.855927,218.638290 34.994202,206.344788 33.123859,186.454468 
	C32.501717,179.838257 32.663521,173.148331 32.467033,165.993332 
M50.157536,88.805550 
	C50.518368,89.909622 50.808277,91.043068 51.251308,92.113106 
	C54.650341,100.322639 62.206871,105.271736 71.166733,105.194733 
	C79.980385,105.118980 87.338547,100.214653 90.645538,92.211784 
	C93.969360,84.168190 92.064613,74.998466 85.784836,68.811615 
	C79.485291,62.605289 69.749039,60.978939 61.816486,64.807907 
	C53.268978,68.933708 49.097748,77.109833 50.157536,88.805550 
z"/>
<path fill="#FA0607" opacity="1.000000" stroke="none" 
	d="
M50.082150,88.380997 
	C49.097748,77.109833 53.268978,68.933708 61.816486,64.807907 
	C69.749039,60.978939 79.485291,62.605289 85.784836,68.811615 
	C92.064613,74.998466 93.969360,84.168190 90.645538,92.211784 
	C87.338547,100.214653 79.980385,105.118980 71.166733,105.194733 
	C62.206871,105.271736 54.650341,100.322639 51.251308,92.113106 
	C50.808277,91.043068 50.518368,89.909622 50.082150,88.380997 
z"/>
</svg>